<svg xmlns="http://www.w3.org/2000/svg" width="791.334" height="791.535"><defs><linearGradient id="a" x1=".601" y1=".401" x2=".184" y2=".883" gradientUnits="objectBoundingBox"><stop offset="0" stop-color="#3a3e4d"/><stop offset="1" stop-color="#383d50"/></linearGradient></defs><path d="M546.285 953.865c66.763 7.238 136.036-6.128 194.194-40 106.142-57.6 171.894-180.73 161.594-300.923-6.293-99.882-63.373-194.615-148.067-247.719-62.492-39.511-139.133-56.4-212.447-46.291a635.425 635.425 0 0 0-74.033 18.647C361.155 377.513 280.441 478.57 266.195 591.461c-10.269 73.478 5.411 150.51 44.889 213.459 50.789 81.433 139.359 139.068 235.201 148.945Zm15.257-27.644c-70.153-4.889-137.8-36.966-186.336-87.757-46.422-47.92-75.4-112.336-79.965-178.936-.62-13.333-2.9-27.905 4.008-40.13 8.249-15.843 27.841-24.58 45.118-19.886 17.8 4.14 31.132 21.613 30.35 39.869A208.147 208.147 0 0 0 433.623 783.4c38.01 39.543 92.19 63.079 147.12 63.307 14.017-.618 28.133 6.129 35.76 18 12.029 17.211 7.172 43.161-10.2 54.9-12.846 9.743-29.766 7.527-44.761 6.614Zm-9.128-112.368c-49.681-9.291-95.515-39.413-121.986-82.7-28.85-44.564-35.076-102.362-18.223-152.5 14.7-43.226 46.162-80.682 86.681-101.84 39.25-21.483 86.746-26.373 129.875-15.06C709.508 481.439 768.9 563.3 763.167 646.1c-3.1 64.318-44.53 124.464-102.394 152.107-33.545 15.384-71.816 22.23-108.359 15.645Z" transform="rotate(-106 398.915 586.475)" style="opacity:.65;fill:url(#a)"/></svg>