<svg xmlns="http://www.w3.org/2000/svg" width="21.582" height="22"><g style="opacity:.09"><path d="M25.111 12.687 25 12.216H14.765v4.332h6.115a6.121 6.121 0 0 1-5.988 4.6 7.161 7.161 0 0 1-4.819-1.92 6.88 6.88 0 0 1-2.053-4.854 7.1 7.1 0 0 1 2.015-4.851 6.855 6.855 0 0 1 4.787-1.873A6.244 6.244 0 0 1 18.9 9.238l3.079-3.063a10.893 10.893 0 0 0-7.252-2.793 11.211 11.211 0 0 0-7.939 3.227 11.166 11.166 0 0 0-3.132 7.771 11.054 11.054 0 0 0 3.01 7.644 11.483 11.483 0 0 0 8.278 3.359 10.212 10.212 0 0 0 7.437-3.126 10.981 10.981 0 0 0 2.856-7.607 12.666 12.666 0 0 0-.126-1.963Z" style="fill:&quot;white&quot;" transform="translate(-3.656 -3.382)"/></g></svg>