<svg xmlns="http://www.w3.org/2000/svg" width="47.347" height="47.347"><circle cx="23.673" cy="23.673" r="23.673" style="fill:#007ab9"/><path d="M53.463 39.432v9.76H47.8v-9.106c0-2.286-.817-3.848-2.866-3.848a3.1 3.1 0 0 0-2.9 2.069 3.873 3.873 0 0 0-.187 1.379v9.505H36.19s.076-15.422 0-17.019h5.659v2.412c-.011.019-.027.038-.038.056h.038v-.056a5.618 5.618 0 0 1 5.1-2.811c3.723 0 6.514 2.432 6.514 7.659ZM30.27 23.969a2.949 2.949 0 1 0-.07 5.881h.037a2.95 2.95 0 1 0 .038-5.881ZM27.4 49.192h5.657V32.173H27.4Z" style="fill:#f1f2f2" transform="translate(-15.645 -13.854)"/></svg>