<svg xmlns="http://www.w3.org/2000/svg" xmlns:xlink="http://www.w3.org/1999/xlink" width="1921" height="1016" viewBox="0 0 1921 1016"><defs><style>.a,.d,.i{stroke:#707070;}.a,.b,.d,.i{mix-blend-mode:hue;isolation:isolate;}.a,.f{fill:url(#a);}.b{fill:#483333;}.c{fill:#110404;}.d{fill:#ff5c63;}.e{clip-path:url(#b);}.f,.h{opacity:0.5;}.g{clip-path:url(#d);}.h{fill:url(#e);}.i{fill:#a98e3f;}.j{stroke:none;}.k{fill:none;}</style><linearGradient id="a" x1="1" y1="0.777" x2="0.151" y2="-0.014" gradientUnits="objectBoundingBox"><stop offset="0" stop-color="#322324"/><stop offset="1" stop-color="#242424"/></linearGradient><clipPath id="b"><rect class="a" width="1920" height="993" transform="translate(229 4303.772)"/></clipPath><clipPath id="d"><rect class="b" width="1920" height="994" transform="translate(0 -83)"/></clipPath><linearGradient id="e" x1="1.037" y1="0.279" x2="0.163" y2="1.052" gradientUnits="objectBoundingBox"><stop offset="0" stop-color="#a98e3f" stop-opacity="0.239"/><stop offset="1" stop-color="#242424"/></linearGradient></defs><g transform="translate(0 -3513)"><g transform="translate(-228 -789.772)"><rect class="c" width="1921" height="992" transform="translate(228 4303.772)"/><g class="d" transform="translate(229 4303.772)"><rect class="j" width="1920" height="993"/><rect class="k" x="0.5" y="0.5" width="1919" height="992"/></g><g class="e"><path class="f" d="M1367.983,0H0V69.769L1943,1259.474V352.085Z" transform="translate(205 4303.772)"/></g><g class="g" transform="translate(229 4385.772)"><path class="h" d="M1561.7,1259.475H0v-69.769L2218.146,0V907.389Z" transform="translate(-299.146 -348.474)"/></g></g><g class="i" transform="translate(0 3541)"><rect class="j" width="1920" height="988"/><rect class="k" x="0.5" y="0.5" width="1919" height="987"/></g></g></svg>