<svg xmlns="http://www.w3.org/2000/svg" width="1921" height="1016"><defs><linearGradient id="a" x1="1" x2=".151" y1=".777" y2="-.014" gradientUnits="objectBoundingBox"><stop offset="0" stop-color="#322324"/><stop offset="1" stop-color="#242424"/></linearGradient><linearGradient id="e" x1="1.037" x2=".163" y1=".279" y2="1.052" gradientUnits="objectBoundingBox"><stop offset="0" stop-color="#a98e3f" stop-opacity=".239"/><stop offset="1" stop-color="#242424"/></linearGradient><clipPath id="b"><path d="M0 0h1920v993H0z" style="fill:url(#a);mix-blend-mode:hue;isolation:isolate;stroke:#707070" transform="translate(229 4303.772)"/></clipPath><clipPath id="d"><path d="M0 0h1920v994H0z" style="fill:#483333;mix-blend-mode:hue;isolation:isolate" transform="translate(0 -83)"/></clipPath><style>.j{stroke:none}.k{fill:none}</style></defs><path d="M0 0h1921v992H0z" style="fill:#110404" transform="translate(0 1)"/><g style="fill:#ff5c63;stroke:#707070;mix-blend-mode:hue;isolation:isolate"><path d="M1 1h1920v993H1z" class="j"/><path d="M1.5 1.5h1919v992H1.5z" class="k"/></g><g style="clip-path:url(#b)" transform="translate(-228 -4302.772)"><path d="M1367.983 0H0v69.769l1943 1189.705V352.085Z" style="opacity:.5;fill:url(#a)" transform="translate(205 4303.772)"/></g><g style="clip-path:url(#d)"><path d="M1561.7 1259.475H0v-69.769L2218.146 0v907.389Z" style="fill:url(#e);opacity:.5" transform="translate(-298.146 -265.474)"/></g><g style="fill:#a98e3f;mix-blend-mode:hue;isolation:isolate;stroke:#707070"><path d="M0 28h1920v988H0z" class="j"/><path d="M.5 28.5h1919v987H.5z" class="k"/></g></svg>