<svg xmlns="http://www.w3.org/2000/svg" width="47.348" height="47.348" viewBox="0 0 47.348 47.348"><defs><style>.a{fill:#c4302b;}.b{fill:#fff;}</style></defs><path class="a" d="M23.674,0A23.674,23.674,0,1,1,0,23.674,23.674,23.674,0,0,1,23.674,0Z"/><path class="b" d="M76.494,65.019a2.787,2.787,0,0,0,1.764-.577,1.688,1.688,0,0,0,.639-1.4v-3.59a1.577,1.577,0,0,0-.651-1.3,2.669,2.669,0,0,0-1.678-.5,3.007,3.007,0,0,0-1.787.476,1.5,1.5,0,0,0-.666,1.286v3.6a1.72,1.72,0,0,0,.648,1.41A2.7,2.7,0,0,0,76.494,65.019Zm-.783-5.432a.384.384,0,0,1,.212-.333,1.067,1.067,0,0,1,.55-.126,1.206,1.206,0,0,1,.593.126.38.38,0,0,1,.225.333V63a.451.451,0,0,1-.222.4,1.093,1.093,0,0,1-.6.144.95.95,0,0,1-.565-.142.463.463,0,0,1-.2-.4Zm5.736,5.427a1.847,1.847,0,0,0,.809-.3,3.028,3.028,0,0,0,.806-.672v.8h1.4v-7.2h-1.4V63.1a1.983,1.983,0,0,1-.431.386.794.794,0,0,1-.391.152.327.327,0,0,1-.284-.115.6.6,0,0,1-.092-.367V57.642h-1.4v6.015a1.586,1.586,0,0,0,.246.963A.917.917,0,0,0,81.448,65.015Zm4.066,2.976h-16.9a4.772,4.772,0,0,0-4.864,4.673v3.951a4.772,4.772,0,0,0,4.864,4.674h16.9a4.773,4.773,0,0,0,4.864-4.674V72.663A4.772,4.772,0,0,0,85.514,67.991ZM71.13,72H69.636v6.188H68.191V72H66.7V70.945h4.434S71.13,72,71.13,72Zm4.46,6.274H74.032v-.642a3.327,3.327,0,0,1-.9.54,2.363,2.363,0,0,1-.9.188,1.129,1.129,0,0,1-.814-.263,1.036,1.036,0,0,1-.274-.781V72.43H72.7v4.482a.406.406,0,0,0,.095.3.461.461,0,0,0,.321.092,1.075,1.075,0,0,0,.435-.123,2,2,0,0,0,.484-.314V72.428H75.59S75.59,78.274,75.59,78.274Zm5.9-1.113a1.092,1.092,0,0,1-.362.88,1.564,1.564,0,0,1-1.045.306,2.54,2.54,0,0,1-.806-.117,2.028,2.028,0,0,1-.658-.367v.414H77.061V70.945h1.555v2.363a2.533,2.533,0,0,1,.66-.376,2.026,2.026,0,0,1,.71-.129,1.618,1.618,0,0,1,1.114.343,1.287,1.287,0,0,1,.388,1.012Zm5.927-1.65h-2.87v1.056a.959.959,0,0,0,.146.614.651.651,0,0,0,.509.17.746.746,0,0,0,.524-.145.949.949,0,0,0,.151-.641v-.254h1.543V76.6a1.526,1.526,0,0,1-.567,1.3,2.734,2.734,0,0,1-1.685.435,2.484,2.484,0,0,1-1.589-.462A1.535,1.535,0,0,1,83,76.6V74.082a1.408,1.408,0,0,1,.639-1.19,2.745,2.745,0,0,1,1.642-.457,2.567,2.567,0,0,1,1.585.425,1.447,1.447,0,0,1,.552,1.221S87.415,75.511,87.415,75.511ZM70.293,65.036h1.765v-4.3l2.055-6.066H72.319l-1.092,4.146h-.112l-1.145-4.146h-1.78l2.1,6.26S70.293,65.036,70.293,65.036Zm8.966,8.626-.327.053-.318.164V77.25a1.355,1.355,0,0,0,.366.191l.371.058a.615.615,0,0,0,.416-.115.467.467,0,0,0,.133-.37v-2.8a.513.513,0,0,0-.161-.416A.73.73,0,0,0,79.259,73.662Z" transform="translate(-53.391 -45.783)"/><path class="b" d="M192.776,170.021a.712.712,0,0,0-.515.154.678.678,0,0,0-.154.5v.565h1.327v-.565a.565.565,0,0,0-.658-.657Z" transform="translate(-160.884 -142.387)"/></svg>