<svg id="Component_4_2" data-name="Component 4 – 2" xmlns="http://www.w3.org/2000/svg" width="71.976" height="71.975"><defs><style>.cls-1{fill:#9d7a2d}</style></defs><path id="Path_9429" data-name="Path 9429" class="cls-1" d="M4729.974-144.985v-4.779c.108-.854.2-1.711.327-2.563a35.392 35.392 0 0 1 13.373-23.255 34.784 34.784 0 0 1 27.167-7.426 34.657 34.657 0 0 1 23.405 13.476 34.962 34.962 0 0 1 6.908 29.545 34.757 34.757 0 0 1-11.109 19.308 35.024 35.024 0 0 1-17.83 8.726c-1.286.223-2.583.375-3.875.559h-4.778c-.46-.056-.919-.117-1.38-.169a35.2 35.2 0 0 1-16.043-5.8 35.572 35.572 0 0 1-15.747-24.58c-.166-1.009-.28-2.027-.418-3.042Zm35.972 27.73a30.124 30.124 0 0 0 30.121-30.132 30.114 30.114 0 0 0-30.076-30.107 30.134 30.134 0 0 0-30.156 30.1 30.124 30.124 0 0 0 30.111 30.139Z" transform="translate(-4729.974 183.369)"/><path id="Path_9430" data-name="Path 9430" class="cls-1" d="M4788.068-148.241a22.07 22.07 0 0 1-19.85 22.892 22.039 22.039 0 0 1-24.294-19.757 22.087 22.087 0 0 1 19.758-24.306 22.127 22.127 0 0 1 24.386 21.171Zm-22.094-15.444a16.365 16.365 0 0 0-16.331 16.285 16.366 16.366 0 0 0 16.283 16.335 16.368 16.368 0 0 0 16.332-16.287 16.365 16.365 0 0 0-16.284-16.333Z" transform="translate(-4729.974 183.369)"/><path id="Path_9431" data-name="Path 9431" class="cls-1" d="M4765.906-138.8a8.538 8.538 0 0 1-8.525-8.6 8.538 8.538 0 0 1 8.651-8.543 8.538 8.538 0 0 1 8.489 8.634 8.536 8.536 0 0 1-8.615 8.509Z" transform="translate(-4729.974 183.369)"/></svg>