<svg xmlns="http://www.w3.org/2000/svg" width="75.795" height="48.985" viewBox="0 0 75.795 48.985">
  <defs>
    <style>
      .cls-1 {
        fill: #9d7a2d;
      }
    </style>
  </defs>
  <g id="Group_11469" data-name="Group 11469" transform="translate(-4949.512 168.794)">
    <path id="Path_9432" data-name="Path 9432" class="cls-1" d="M4949.512-145.187c.421-1.759,1.665-2.983,2.8-4.267a65.75,65.75,0,0,1,18.219-14.77,38.093,38.093,0,0,1,12.951-4.314,32,32,0,0,1,16,2.139,52.7,52.7,0,0,1,16.71,10.678c2.707,2.5,5.206,5.244,7.7,7.97a4.945,4.945,0,0,1,.123,6.8,71.053,71.053,0,0,1-17.182,15.128,40.039,40.039,0,0,1-13.83,5.5,32.146,32.146,0,0,1-17.754-1.856A55.119,55.119,0,0,1,4957.365-134c-2.21-2.1-4.269-4.372-6.306-6.646a15.064,15.064,0,0,1-1.547-2.619Zm54.166.9a16.271,16.271,0,0,0-16.215-16.3,16.268,16.268,0,0,0-16.373,16.29,16.267,16.267,0,0,0,16.288,16.3A16.268,16.268,0,0,0,5003.678-144.289Z"/>
    <path id="Path_9433" data-name="Path 9433" class="cls-1" d="M4987.39-132.62a11.687,11.687,0,0,1-11.682-11.7,11.7,11.7,0,0,1,11.669-11.649,11.7,11.7,0,0,1,11.683,11.709A11.69,11.69,0,0,1,4987.39-132.62Z"/>
  </g>
</svg>
