<svg xmlns="http://www.w3.org/2000/svg" width="47" height="47" viewBox="0 0 47 47"><defs><style>.a{fill:#2daae1;}.b{fill:#fff;}</style></defs><g transform="translate(0.498 0.121)"><circle class="a" cx="23.5" cy="23.5" r="23.5" transform="translate(-0.498 -0.121)"/><path class="b" d="M262.286,146.224a12.356,12.356,0,0,1-3.555.975,6.207,6.207,0,0,0,2.722-3.424,12.367,12.367,0,0,1-3.931,1.5,6.192,6.192,0,0,0-10.706,4.236,6.262,6.262,0,0,0,.159,1.411,17.574,17.574,0,0,1-12.757-6.467,6.2,6.2,0,0,0,1.915,8.263,6.161,6.161,0,0,1-2.8-.774v.078a6.192,6.192,0,0,0,4.965,6.068,6.158,6.158,0,0,1-1.631.217,6.285,6.285,0,0,1-1.165-.109,6.2,6.2,0,0,0,5.781,4.3,12.463,12.463,0,0,1-9.164,2.562,17.516,17.516,0,0,0,9.488,2.782c11.384,0,17.61-9.431,17.61-17.61q0-.4-.019-.8A12.612,12.612,0,0,0,262.286,146.224Z" transform="translate(-224.329 -132.266)"/></g></svg>